<svg width="58" height="58" viewBox="0 0 58 58" fill="none" xmlns="http://www.w3.org/2000/svg">
<g clip-path="url(#clip0_129_56)">
<rect y="15.3909" width="45" height="45" rx="10" transform="rotate(-20 0 15.3909)" fill="#1AB8DB" fill-opacity="0.85"/>
<path d="M38.0196 24.0754C39.0905 26.3123 39.292 28.8673 38.585 31.2444C37.878 33.6215 36.3129 35.6511 34.1936 36.9391C32.0743 38.2271 29.552 38.6817 27.1164 38.2146C24.6808 37.7474 22.5056 36.3919 21.0133 34.4112C19.5209 32.4305 18.8178 29.9658 19.0404 27.4958C19.263 25.0258 20.3956 22.7267 22.2181 21.0448C24.0406 19.3628 26.4231 18.4181 28.903 18.3941C31.3829 18.37 33.7832 19.2683 35.638 20.9145L37.9898 18.5628C38.1 18.4527 38.2495 18.3909 38.4053 18.3909C38.5612 18.391 38.7106 18.4529 38.8208 18.5631C38.931 18.6733 38.9929 18.8227 38.993 18.9786C38.993 19.1344 38.9311 19.2839 38.821 19.3942L32.7411 25.4741L32.741 25.4742L32.7408 25.4743L29.4157 28.7995C29.3054 28.9096 29.1559 28.9715 29.0001 28.9714C28.8442 28.9713 28.6948 28.9094 28.5846 28.7992C28.4744 28.689 28.4125 28.5396 28.4125 28.3837C28.4124 28.2279 28.4743 28.0784 28.5844 27.9682L31.4639 25.0887C30.7137 24.5279 29.7946 24.2399 28.8585 24.2723C27.9225 24.3046 27.0255 24.6554 26.3158 25.2667C25.6061 25.8779 25.1262 26.713 24.9554 27.6339C24.7846 28.5548 24.9332 29.5064 25.3765 30.3315C25.8199 31.1565 26.5315 31.8056 27.3937 32.1715C28.2559 32.5373 29.2171 32.598 30.1185 32.3435C31.0199 32.089 31.8075 31.5346 32.3511 30.7719C32.8947 30.0092 33.1618 29.0838 33.1082 28.1487C33.1037 28.0716 33.1145 27.9943 33.1399 27.9213C33.1653 27.8484 33.2048 27.7811 33.2562 27.7235C33.3076 27.6658 33.3699 27.6188 33.4395 27.5852C33.509 27.5517 33.5845 27.5321 33.6617 27.5277C33.7388 27.5233 33.816 27.5342 33.889 27.5597C33.9619 27.5852 34.0291 27.6248 34.0867 27.6763C34.1443 27.7278 34.1912 27.7901 34.2247 27.8597C34.2582 27.9293 34.2776 28.0049 34.2819 28.082C34.3513 29.2918 34.0033 30.4888 33.2961 31.4728C32.5889 32.4568 31.5653 33.1683 30.3965 33.4882C29.2277 33.8081 27.9844 33.7171 26.8747 33.2304C25.7649 32.7437 24.8558 31.8909 24.2994 30.8143C23.743 29.7378 23.573 28.5029 23.8177 27.3161C24.0625 26.1293 24.7073 25.0625 25.6443 24.294C26.5812 23.5255 27.7536 23.1019 28.9654 23.0941C30.1771 23.0862 31.3549 23.4946 32.3017 24.2509L34.8041 21.7485C33.1608 20.3156 31.0444 19.5433 28.8644 19.5813C26.6845 19.6192 24.5962 20.4645 23.0038 21.9537C21.4113 23.4429 20.428 25.4699 20.2442 27.6424C20.0605 29.8149 20.6893 31.9783 22.0089 33.7138C23.3286 35.4493 25.2453 36.6335 27.3878 37.037C29.5304 37.4406 31.7465 37.0348 33.6071 35.8983C35.4677 34.7618 36.8405 32.9754 37.4597 30.8849C38.0788 28.7944 37.9003 26.5486 36.9588 24.5821C36.9255 24.5125 36.9063 24.4369 36.9022 24.3599C36.8981 24.2828 36.9092 24.2056 36.935 24.1329C36.9607 24.0601 37.0005 23.9931 37.0521 23.9357C37.1038 23.8783 37.1662 23.8316 37.2358 23.7984C37.3055 23.7651 37.381 23.7459 37.4581 23.7418C37.5352 23.7377 37.6123 23.7488 37.6851 23.7746C37.7579 23.8003 37.8249 23.8401 37.8823 23.8917C37.9397 23.9434 37.9863 24.0058 38.0196 24.0754Z" fill="black" fill-opacity="0.6"/>
</g>
<defs>
<clipPath id="clip0_129_56">
<rect width="45" height="45" fill="white" transform="translate(0 15.3909) rotate(-20)"/>
</clipPath>
</defs>
</svg>
