<!DOCTYPE svg PUBLIC "-//W3C//DTD SVG 1.1//EN" "http://www.w3.org/Graphics/SVG/1.1/DTD/svg11.dtd">
<!-- Uploaded to: SVG Repo, www.svgrepo.com, Transformed by: SVG Repo Mixer Tools -->
<svg fill="#000000" height="64px" width="64px" version="1.1" id="Layer_1" xmlns="http://www.w3.org/2000/svg" xmlns:xlink="http://www.w3.org/1999/xlink" viewBox="0 0 504 504" xml:space="preserve">
<g id="SVGRepo_bgCarrier" stroke-width="0"/>
<g id="SVGRepo_tracerCarrier" stroke-linecap="round" stroke-linejoin="round"/>
<g id="SVGRepo_iconCarrier"> <g> <g> <path d="M413.388,55.124h-71.644l-2.44-10.632C333.68,19.96,308.62,0,283.448,0h-62.896C195.38,0,170.32,19.96,164.7,44.492 l-2.444,10.632H90.612c-19.54,0-35.488,15.012-35.488,33.468v29.532c0,2.176,1.816,3.936,3.988,3.936h16.292l27.472,331.172 C104.968,481.228,129.508,504,157.572,504H358.26c28.088,0,52.408-22.808,54.208-50.896l16.72-331.044h15.7 c2.172,0,3.988-1.76,3.988-3.936V88.592C448.876,70.136,432.924,55.124,413.388,55.124z M180.048,48.016 c4.008-17.492,22.556-32.264,40.5-32.264h62.9c17.944,0,36.492,14.772,40.504,32.264l1.632,7.108H178.416L180.048,48.016z M185.344,475.956c-0.1,0.008-0.2,0.008-0.3,0.008c-4.212,0-7.704-3.332-7.868-7.584l-11.812-315.184 c-0.16-4.344,3.232-8,7.576-8.16c4.288-0.136,8,3.224,8.168,7.576l11.812,315.184C193.08,472.144,189.688,475.796,185.344,475.956 z M263.848,234.38v232.436c0,4.348-3.528,7.876-7.876,7.876s-7.876-3.524-7.876-7.876V234.38v-82.752 c0-4.348,3.524-7.876,7.876-7.876c4.348,0,7.876,3.528,7.876,7.876V234.38z M333.68,468.452c-0.164,4.248-3.652,7.576-7.868,7.576 c-0.1,0-0.204,0-0.3-0.008c-4.348-0.164-7.74-3.82-7.576-8.168l11.932-315.184c0.168-4.344,3.864-7.72,8.168-7.568 c4.348,0.164,7.74,3.82,7.576,8.168L333.68,468.452z"/> </g> </g> </g>
</svg>